# xmcd
#
# Track frame offsets: 
#        150
#        600
#        16466
#        33350
#        53104
#        74316
#        74766
#        93437
#        93887
#        114770
#        126152
#        146824
#
# Disc length: 2205 seconds
#
# Revision: 0
# Processed by: cddbd v1.4PL0 Copyright (c) Steve Scherf et al.
# Submitted via: ExactAudioCopy v0.90b4
#
DISCID=a0089b0c
DTITLE=Deana Carter - I'm Just A Girl
DYEAR=2003
DGENRE=Country
TTITLE0=I'm Just A Girl
TTITLE1=There's No Limit
TTITLE2=You And Tequila
TTITLE3=Me And The Radio
TTITLE4=Cover Of A Magazine
TTITLE5=Wildflower
TTITLE6=Twice As Worth It
TTITLE7=Eddie
TTITLE8=Waiting
TTITLE9=Liar
TTITLE10=Goodbye Train
TTITLE11=Girl's Night
EXTD=Submitted By scanner1 (03-03-2003)
EXTT0=
EXTT1=
EXTT2=
EXTT3=
EXTT4=
EXTT5=
EXTT6=
EXTT7=
EXTT8=
EXTT9=
EXTT10=
EXTT11=
PLAYORDER=
